<?xml version="1.0" encoding="UTF-8"?>
<svg width="193" height="55" version="1.1" viewBox="0 0 193 55" xmlns="http://www.w3.org/2000/svg">
 <path d="m0.19609 0.19305h192.61v54.614h-192.61z" color="#000000" fill="#f1f3f4" stroke-linejoin="round" stroke-width="1.0079" style="-inkscape-stroke:none"/>
 <path d="m0.19641 2.3258e-8a0.1959 0.19286 0 0 0-0.19641 0.19336v54.613a0.1959 0.19286 0 0 0 0.19641 0.19336h192.61a0.1959 0.19286 0 0 0 0.19635-0.19336v-54.613a0.1959 0.19286 0 0 0-0.19635-0.19336zm0.19641 0.38672h192.21v54.227h-192.21z" color="#000000" fill-opacity=".55" stroke-linejoin="round" stroke-width="1.0022" style="-inkscape-stroke:none"/>
 <path d="m50.693 32.385v-9.3984q-0.76173-0.01172-1.125-0.33984-0.36329-0.33984-0.36329-0.8672 0-0.53906 0.36329-0.8672 0.375-0.33984 1.2422-0.33984l5.0273 0.01172q1.1719 0 2.2852 0.4336 1.125 0.43359 1.8047 1.1016 0.51562 0.50391 1.0665 1.3829 0.5625 0.87892 0.84376 1.7461 0.28125 0.8672 0.28125 2.1211v1.1484q0 1.5234-0.51562 2.7071-0.51563 1.1719-1.3594 1.9219-0.83203 0.73829-1.5703 1.0898-1.1719 0.55078-3.0353 0.55078h-4.8282q-0.8672 0-1.2422-0.32813-0.36329-0.33983-0.36329-0.8789 0-0.52735 0.36329-0.8672 0.375-0.33984 1.125-0.32813zm2.4023 0h2.5547q1.4297 0 2.1562-0.41016 0.94923-0.53907 1.4297-1.3712 0.48048-0.83204 0.48048-2.1562v-1.1367q0-1.1367-0.4336-1.9922-0.6797-1.3359-1.5353-1.8281-0.84376-0.50391-2.1211-0.50391h-2.5313zm26.117-4.6992q0 3.1993-2.0392 5.3321-2.0274 2.1211-4.6992 2.1211-2.4023 0-4.336-1.7695-2.3906-2.1915-2.3906-5.6836 0-3.4922 2.3906-5.6953 1.9337-1.7695 4.336-1.7695 2.6719 0 4.6992 2.1328 2.0392 2.1211 2.0392 5.3321zm-2.4023 0q0-2.1915-1.3242-3.6211-1.3242-1.4415-3.0118-1.4415-1.6757 0-3 1.4415-1.3242 1.4415-1.3242 3.6211t1.3242 3.6211q1.3242 1.4297 3 1.4297 1.6876 0 3.0118-1.4297t1.3242-3.6211zm12.067 0.28125-2.2266 6.8203h-2.6954l-1.4297-11.801q-0.55078-0.07031-0.83204-0.37502-0.28125-0.31641-0.28125-0.79688 0-0.5625 0.36328-0.90234 0.37502-0.33984 1.2422-0.33984l3.1993 0.01172q0.8672 0 1.2306 0.32812 0.375 0.32812 0.375 0.8672 0 0.53906-0.375 0.87892-0.36329 0.32813-1.2306 0.32813h-1.2539l0.79688 6.7149 1.8868-5.5899h2.496l1.8751 5.5899 0.79688-6.7149h-1.2539q-0.8672 0-1.2422-0.32813-0.36329-0.33984-0.36329-0.87892t0.36329-0.8672q0.375-0.33984 1.2422-0.33984l3.1876 0.01172q0.8672 0 1.2306 0.32812 0.375 0.32812 0.375 0.86721 0 0.45703-0.29298 0.78517-0.29298 0.32812-0.84376 0.42188l-1.3829 11.801h-2.6484zm13.391-2.8478v7.2656h0.86719q0.8672 0 1.2306 0.33984 0.375 0.32812 0.375 0.8672 0 0.52735-0.375 0.86719-0.36329 0.32813-1.2306 0.32813h-3.1523q-0.8672 0-1.2422-0.32813-0.36328-0.33984-0.36328-0.87892 0-0.51563 0.36328-0.85548 0.36329-0.33984 1.125-0.33984v-9.3984h-0.375q-0.8672 0-1.2422-0.32812-0.36329-0.33984-0.36329-0.87892 0-0.53907 0.36329-0.86721 0.375-0.33984 1.2422-0.33984l2.7773 0.01172 6.1407 9.6329v-7.2306h-0.86716q-0.86722 0-1.2422-0.32813-0.36328-0.33984-0.36328-0.87892 0-0.53906 0.36328-0.8672 0.375-0.33984 1.2422-0.33984l3.1524 0.01172q0.86719 0 1.2306 0.32813 0.37496 0.32812 0.37496 0.8672 0 0.52735-0.36325 0.8672-0.36333 0.33984-1.1134 0.33984v11.801h-2.379zm18.406-2.1328v9.3984h5.1797v-2.2734q0-0.8672 0.32814-1.2306 0.33987-0.37501 0.87891-0.37501 0.52739 0 0.85551 0.37501 0.33982 0.36329 0.33982 1.2306v4.6759h-11.379q-0.86719 0-1.2422-0.32812-0.36329-0.33984-0.36329-0.87892 0-0.52735 0.36329-0.85548 0.375-0.33984 1.2422-0.33984h1.3946v-9.3984h-1.3946q-0.86719 0-1.2422-0.32812-0.36329-0.33984-0.36329-0.87892 0-0.53906 0.36329-0.8672 0.375-0.33984 1.2422-0.33984l5.2031 0.01172q0.86719 0 1.2306 0.32812 0.375 0.32813 0.375 0.8672 0 0.53908-0.375 0.87892-0.36328 0.32812-1.2306 0.32812zm24.149 4.6992q0 3.1993-2.0392 5.3321-2.0274 2.1211-4.6992 2.1211-2.4023 0-4.3359-1.7695-2.3906-2.1915-2.3906-5.6836t2.3906-5.6953q1.9336-1.7695 4.3359-1.7695 2.6719 0 4.6992 2.1328 2.0392 2.1211 2.0392 5.3321zm-2.4023 0q0-2.1915-1.3242-3.6211-1.3242-1.4415-3.0118-1.4415-1.6757 0-3 1.4415-1.3242 1.4415-1.3242 3.6211t1.3242 3.6211q1.3242 1.4297 3 1.4297 1.6876 0 3.0118-1.4297t1.3242-3.6211zm14.996 3.2344h-5.8359l-0.58595 1.4648h0.58595q0.86719 0 1.2304 0.33984 0.37501 0.32812 0.37501 0.8672 0 0.52735-0.37501 0.86719-0.36328 0.32813-1.2304 0.32813h-3.2344q-0.86716 0-1.2306-0.32813-0.37496-0.33984-0.37496-0.87892 0-0.53907 0.38668-0.87892 0.38673-0.33985 1.2773-0.31642l3.7735-9.3984h-1.5703q-0.86716 0-1.2422-0.32812-0.36325-0.33984-0.36325-0.87892 0-0.53906 0.36325-0.86719 0.37503-0.33984 1.2422-0.33984l5.1914 0.01172 4.7813 11.801q0.84376 0 1.1133 0.18751 0.53911 0.38672 0.53911 1.0195 0 0.52735-0.36333 0.8672-0.36327 0.32812-1.2306 0.32812h-3.2344q-0.86716 0-1.2422-0.32812-0.36329-0.33984-0.36329-0.87892 0-0.52735 0.36329-0.85548 0.37503-0.33984 1.2422-0.33984h0.58594zm-0.99608-2.4023-1.9336-4.7579-1.9453 4.7579zm9.0899 3.8672v-9.3984q-0.76174-0.01172-1.125-0.33984-0.36329-0.33984-0.36329-0.8672 0-0.53906 0.36329-0.8672 0.375-0.33984 1.2422-0.33984l5.0273 0.01172q1.1719 0 2.2852 0.43359 1.125 0.4336 1.8047 1.1016 0.51559 0.50392 1.0664 1.3829 0.56252 0.87892 0.84376 1.7461 0.28129 0.8672 0.28129 2.1211v1.1484q0 1.5233-0.51566 2.7071-0.51564 1.1719-1.3593 1.9219-0.83208 0.73829-1.5703 1.0898-1.1719 0.55078-3.0353 0.55078h-4.8282q-0.86719 0-1.2422-0.32812-0.36329-0.33984-0.36329-0.87892 0-0.52735 0.36329-0.8672 0.37502-0.33984 1.125-0.32812zm2.4024 0h2.5547q1.4298 0 2.1562-0.41017 0.94924-0.53906 1.4297-1.3712 0.48048-0.83203 0.48048-2.1562v-1.1367q0-1.1367-0.43356-1.9922-0.67973-1.3359-1.5353-1.8281-0.84377-0.50391-2.121-0.50391h-2.5313z" aria-label="DOWNLOAD"/>
 <path d="m24.939 16.645v16.36m0 0-7.3971-6.0274m7.3971 6.0274 7.3971-6.0274" stroke="#000" stroke-linecap="round" stroke-linejoin="round" stroke-width="2.6063"/>
 <path d="m16.197 38.039h17.484" stroke="#000" stroke-linecap="round" stroke-linejoin="round" stroke-width="2.6063"/>
</svg>
