<?xml version="1.0" encoding="UTF-8"?>
<svg width="150" height="55" version="1.1" viewBox="0 0 150 55" xmlns="http://www.w3.org/2000/svg">
 <path d="m0.17454 0.16872h149.65v54.663h-149.65z" color="#000000" fill="#f1f3f4" stroke-linejoin="round" stroke-width="1.0171" style="-inkscape-stroke:none"/>
 <path d="m0.17377 0a0.17435 0.16853 0 0 0-0.17377 0.16797v54.664a0.17435 0.16853 0 0 0 0.17377 0.16797h149.65a0.17435 0.16853 0 0 0 0.17386-0.16797v-54.664a0.17435 0.16853 0 0 0-0.17386-0.16797zm0.17578 0.33789h149.31v54.324h-149.31z" color="#000000" fill-opacity=".55" stroke-linejoin="round" stroke-width="1.0171" style="-inkscape-stroke:none"/>
 <path d="m60.427 28.589v3.5156h2.4609q0.86719 0 1.2305 0.33984 0.375 0.32812 0.375 0.86719 0 0.52734-0.375 0.86719-0.36328 0.32812-1.2305 0.32812h-5.2383q-0.86719 0-1.2422-0.32812-0.36328-0.33984-0.36328-0.87891 0-0.52734 0.375-0.85547 0.375-0.33984 1.2305-0.33984h0.375v-9.3984h-0.375q-0.86719 0-1.2422-0.32812-0.36328-0.33984-0.36328-0.87891 0-0.53906 0.36328-0.86719 0.375-0.33984 1.2422-0.33984l11.309 0.01172v3.668q0 0.85547-0.33984 1.2305-0.32812 0.36328-0.86719 0.36328-0.52734 0-0.86719-0.36328-0.32812-0.36328-0.32812-1.2305v-1.2656h-6.1289v3.4805h2.1094q0-0.9375 0.17578-1.207 0.36328-0.57422 1.0312-0.57422 0.52734 0 0.85547 0.375 0.33984 0.36328 0.33984 1.2305v2.7656q0 0.86719-0.33984 1.2422-0.32812 0.36328-0.86719 0.36328-0.65625 0-1.0195-0.57422-0.17578-0.26953-0.17578-1.2188zm24.793-1.1836q0 3.1992-2.0391 5.332-2.0273 2.1211-4.6992 2.1211-2.4023 0-4.3359-1.7695-2.3906-2.1914-2.3906-5.6836t2.3906-5.6953q1.9336-1.7695 4.3359-1.7695 2.6719 0 4.6992 2.1328 2.0391 2.1211 2.0391 5.332zm-2.4023 0q0-2.1914-1.3242-3.6211-1.3242-1.4414-3.0117-1.4414-1.6758 0-3 1.4414t-1.3242 3.6211 1.3242 3.6211q1.3242 1.4297 3 1.4297 1.6875 0 3.0117-1.4297t1.3242-3.6211zm9.582 1.6758v3.0234h0.86719q0.86719 0 1.2305 0.33984 0.375 0.32812 0.375 0.86719 0 0.52734-0.375 0.86719-0.36328 0.32812-1.2305 0.32812h-3.6445q-0.86719 0-1.2422-0.32812-0.36328-0.33984-0.36328-0.87891 0-0.52734 0.375-0.85547 0.375-0.33984 1.2305-0.33984h0.375v-9.3984h-0.375q-0.86719 0-1.2422-0.32812-0.36328-0.33984-0.36328-0.87891 0-0.53906 0.36328-0.86719 0.375-0.33984 1.2422-0.33984l5.4375 0.01172q2.543 0 3.9375 1.2656 1.4062 1.2539 1.4062 3.0586 0 1.125-0.65625 2.0508-0.65625 0.91406-1.9805 1.6289 0.76172 0.66797 1.6289 1.7109 0.53906 0.66797 1.4531 2.0859 0.91406 0 1.207 0.1875 0.52734 0.36328 0.52734 1.0195 0 0.52734-0.36328 0.86719-0.36328 0.32812-1.2305 0.32812h-1.3711q-2.918-4.5117-4.8398-5.4258zm0-2.4023h1.875q1.043 0 1.8633-0.31641 1.1016-0.42188 1.4766-0.89062 0.38672-0.46875 0.38672-0.92578 0-0.67969-0.72656-1.2539-0.72656-0.58594-2.1211-0.58594h-2.7539zm24.371-3.9727v6.8086q0 2.2266-1.6055 3.7852-1.5938 1.5586-3.8438 1.5586-1.1133 0-2.0976-0.38672-0.97266-0.39844-1.7578-1.1602-0.77344-0.76172-1.207-1.582-0.43359-0.83203-0.43359-2.2148v-6.8086q-0.76172 0-1.125-0.33984t-0.36328-0.86719q0-0.53906 0.36328-0.86719t1.2422-0.32812l3.1523-0.01172q0.86719 0 1.2305 0.33984 0.375 0.32812 0.375 0.86719 0 0.53906-0.375 0.87891-0.36328 0.32812-1.2305 0.32812h-0.86719v7.0195q0 1.0781 0.89063 1.9102 0.90234 0.82031 2.168 0.82031 0.84375 0 1.582-0.39844 0.73828-0.39844 1.207-1.1602 0.29297-0.48047 0.29297-1.1719v-7.0195h-0.86719q-0.86719 0-1.2422-0.32812-0.36328-0.33984-0.36328-0.87891 0-0.53906 0.36328-0.86719 0.375-0.33984 1.2422-0.33984l3.1524 0.01172q0.86718 0 1.2305 0.32812 0.375 0.32812 0.375 0.86719 0 0.52734-0.36328 0.86719-0.36328 0.33984-1.125 0.33984zm7.1562 2.2383v7.1602h0.86719q0.86719 0 1.2305 0.33984 0.375 0.32812 0.375 0.86719 0 0.52734-0.375 0.86719-0.36328 0.32812-1.2305 0.32812h-3.1523q-0.86719 0-1.2305-0.32812-0.375-0.33984-0.375-0.87891 0-0.52734 0.36328-0.85547 0.36328-0.33984 1.125-0.33984v-9.3984q-0.63281-0.05859-0.96094-0.38672-0.3164-0.32812-0.3164-0.82031 0-0.53906 0.36328-0.86719 0.375-0.33984 1.2422-0.33984l2.6367 0.01172 3.2695 7.2305 3.2109-7.2422 2.6602 0.01172q0.86719 0 1.2305 0.32812 0.375 0.32812 0.375 0.86719 0 0.49219-0.32813 0.82031-0.32812 0.32812-0.94922 0.38672v9.3984q0.76172 0 1.125 0.33984t0.36328 0.86719-0.375 0.86719q-0.36328 0.32812-1.2305 0.32812h-3.1641q-0.85547 0-1.2305-0.32812-0.36328-0.33984-0.36328-0.87891 0-0.52734 0.36328-0.85547 0.375-0.33984 1.2305-0.33984h0.87891v-7.1602l-2.7539 6.1875h-2.0859z" aria-label="FORUM"/>
 <path class="cls-1" d="m37.683 20.67h-2.3148v-2.0833a2.7778 3.125 0 0 0-2.7778-3.125h-14.352a2.7778 3.125 0 0 0-2.7778 3.125v17.187a0.92592 1.0417 0 0 0 0.55092 0.95312 0.97222 1.0937 0 0 0 0.375 0.08875 0.92592 1.0417 0 0 0 0.625-0.27088l4.4676-4.573v1.7187a2.7778 3.125 0 0 0 2.7778 3.125h9.9167l4.8657 3.4843a0.92592 1.0417 0 0 0 0.49538 0.1615 0.89815 1.0104 0 0 0 0.46296-0.13025 0.92592 1.0417 0 0 0 0.46296-0.9115v-15.625a2.7778 3.125 0 0 0-2.7778-3.125zm-20.37 12.75v-14.833a0.92592 1.0417 0 0 1 0.92592-1.0416h14.352a0.92592 1.0417 0 0 1 0.92592 1.0416v9.8957a0.92592 1.0417 0 0 1-0.92592 1.0416h-11.111a0.92592 1.0417 0 0 0-0.625 0.27088zm21.296 4.1041-3.6713-2.6041a0.92592 1.0417 0 0 0-0.49536-0.1875h-10.185a0.92592 1.0417 0 0 1-0.92592-1.0416v-2.0833h9.2592a2.7778 3.125 0 0 0 2.7778-3.125v-5.7291h2.3148a0.92592 1.0417 0 0 1 0.92592 1.0416z" stroke="#000"/>
</svg>
