<?xml version="1.0" encoding="UTF-8"?>
<svg width="165" height="55" version="1.1" viewBox="0 0 165 55" xmlns="http://www.w3.org/2000/svg">
 <g stroke-linejoin="round">
  <path d="m0.18274 0.1772h164.64v54.646h-164.64z" color="#000000" fill="#f1f3f4" stroke-width="1.0155" style="-inkscape-stroke:none"/>
  <path d="m0.18329 0a0.18256 0.17702 0 0 0-0.18329 0.17773v54.645a0.18256 0.17702 0 0 0 0.18329 0.17773h164.63a0.18256 0.17702 0 0 0 0.18324-0.17773v-54.645a0.18256 0.17702 0 0 0-0.18324-0.17773zm0.18128 0.35352h164.27v54.293h-164.27z" color="#000000" fill-opacity=".55" stroke-width="1.0155" style="-inkscape-stroke:none"/>
  <g fill="none" stroke="#000" stroke-linecap="round">
   <path d="m38.869 33.717v-14.376c0-1.4293-1.0914-2.4893-2.4166-2.3702h-0.06688c-2.3386 0.21439-5.891 1.4888-7.8733 2.8228l-0.18925 0.13088c-0.32294 0.21438-0.8575 0.21438-1.1804 0l-0.27847-0.17852c-1.9823-1.3221-5.5236-2.5846-7.8622-2.7871-1.3252-0.1191-2.4054 0.95284-2.4054 2.3702v14.388c0 1.1434 0.86864 2.2154 1.9377 2.3583l0.32294 0.04752c2.4166 0.34539 6.1472 1.6556 8.2854 2.9062l0.04448 0.02383c0.30067 0.17866 0.77954 0.17866 1.0691 0 2.1382-1.2625 5.8799-2.5846 8.3076-2.93l0.36749-0.04752c1.0691-0.14288 1.9377-1.2149 1.9377-2.3583z" stroke-width="2.8611"/>
   <path d="m27.733 20.318v17.866" stroke-width="2.8611"/>
   <path d="m23 23.891h-2.5057" stroke-width="2.1052"/>
   <path d="m23.835 27.464h-3.3409" stroke-width="2.1052"/>
  </g>
 </g>
 <path d="m59.695 29.081v3.0234h0.86719q0.86719 0 1.2305 0.33984 0.375 0.32812 0.375 0.86719 0 0.52734-0.375 0.86719-0.36328 0.32812-1.2305 0.32812h-3.6445q-0.86719 0-1.2422-0.32812-0.36328-0.33984-0.36328-0.87891 0-0.52734 0.375-0.85547 0.375-0.33984 1.2305-0.33984h0.375v-9.3984h-0.375q-0.86719 0-1.2422-0.32812-0.36328-0.33984-0.36328-0.87891 0-0.53906 0.36328-0.86719 0.375-0.33984 1.2422-0.33984l5.4375 0.01172q2.543 0 3.9375 1.2656 1.4062 1.2539 1.4062 3.0586 0 1.125-0.65625 2.0508-0.65625 0.91406-1.9805 1.6289 0.76172 0.66797 1.6289 1.7109 0.53906 0.66797 1.4531 2.0859 0.91406 0 1.207 0.1875 0.52734 0.36328 0.52734 1.0195 0 0.52734-0.36328 0.86719-0.36328 0.32812-1.2305 0.32812h-1.3711q-2.918-4.5117-4.8398-5.4258zm0-2.4023h1.875q1.043 0 1.8633-0.31641 1.1016-0.42188 1.4766-0.89062 0.38672-0.46875 0.38672-0.92578 0-0.67969-0.72656-1.2539-0.72656-0.58594-2.1211-0.58594h-2.7539zm16.414 1.8984v3.5273h6.1289v-1.3008q0-0.86719 0.32812-1.2305 0.33984-0.375 0.87891-0.375 0.52734 0 0.85547 0.375 0.33984 0.36328 0.33984 1.2305v3.7031h-11.309q-0.86719 0-1.2422-0.32812-0.36328-0.33984-0.36328-0.87891 0-0.52734 0.375-0.85547 0.375-0.33984 1.2305-0.33984h0.375v-9.3984h-0.375q-0.86719 0-1.2422-0.32812-0.36328-0.33984-0.36328-0.87891 0-0.53906 0.36328-0.86719 0.375-0.33984 1.2422-0.33984l10.781 0.01172v3.6562q0 0.85547-0.32812 1.2305-0.32812 0.36328-0.86719 0.36328-0.53906 0-0.87891-0.36328-0.32812-0.36328-0.32812-1.2305v-1.2539h-5.6016v3.4688h2.1094q0-0.9375 0.17578-1.207 0.36328-0.57422 1.0312-0.57422 0.52734 0 0.85547 0.375 0.33984 0.36328 0.33984 1.2305v2.7656q0 0.78516-0.1875 1.0547-0.375 0.55078-1.0078 0.55078-0.66797 0-1.0312-0.57422-0.17578-0.26953-0.17578-1.2188zm21.805 2.0625h-5.8359l-0.58594 1.4648h0.58594q0.86719 0 1.2305 0.33984 0.375 0.32812 0.375 0.86719 0 0.52734-0.375 0.86719-0.36328 0.32812-1.2305 0.32812h-3.2344q-0.86719 0-1.2305-0.32812-0.375-0.33984-0.375-0.87891 0-0.53906 0.38672-0.87891 0.38672-0.33984 1.2773-0.31641l3.7734-9.3984h-1.5703q-0.86719 0-1.2422-0.32812-0.36328-0.33984-0.36328-0.87891 0-0.53906 0.36328-0.86719 0.375-0.33984 1.2422-0.33984l5.1914 0.01172 4.7812 11.801q0.84375 0 1.1133 0.1875 0.53906 0.38672 0.53906 1.0195 0 0.52734-0.36328 0.86719-0.36328 0.32812-1.2305 0.32812h-3.2344q-0.86719 0-1.2422-0.32812-0.36328-0.33984-0.36328-0.87891 0-0.52734 0.36328-0.85547 0.375-0.33984 1.2422-0.33984h0.58594zm-0.99609-2.4023-1.9336-4.7578-1.9453 4.7578zm9.0898 3.8672v-9.3984q-0.76172-0.01172-1.125-0.33984-0.36328-0.33984-0.36328-0.86719 0-0.53906 0.36328-0.86719 0.375-0.33984 1.2422-0.33984l5.0273 0.01172q1.1719 0 2.2852 0.43359 1.125 0.43359 1.8047 1.1016 0.51562 0.50391 1.0664 1.3828 0.5625 0.87891 0.84375 1.7461t0.28125 2.1211v1.1484q0 1.5234-0.51562 2.707-0.51563 1.1719-1.3594 1.9219-0.83203 0.73828-1.5703 1.0898-1.1719 0.55078-3.0352 0.55078h-4.8281q-0.86719 0-1.2422-0.32812-0.36328-0.33984-0.36328-0.87891 0-0.52734 0.36328-0.86719 0.375-0.33984 1.125-0.32812zm2.4024 0h2.5547q1.4297 0 2.1562-0.41016 0.94922-0.53906 1.4297-1.3711 0.48047-0.83203 0.48047-2.1562v-1.1367q0-1.1367-0.43359-1.9922-0.67969-1.3359-1.5352-1.8281-0.84375-0.50391-2.1211-0.50391h-2.5312zm15.617-7.1602v7.1602h0.86719q0.86719 0 1.2305 0.33984 0.375 0.32812 0.375 0.86719 0 0.52734-0.375 0.86719-0.36328 0.32812-1.2305 0.32812h-3.1523q-0.86719 0-1.2305-0.32812-0.375-0.33984-0.375-0.87891 0-0.52734 0.36328-0.85547 0.36328-0.33984 1.125-0.33984v-9.3984q-0.63281-0.05859-0.96094-0.38672-0.3164-0.32812-0.3164-0.82031 0-0.53906 0.36328-0.86719 0.375-0.33984 1.2422-0.33984l2.6367 0.01172 3.2695 7.2305 3.2109-7.2422 2.6602 0.01172q0.86719 0 1.2305 0.32812 0.375 0.32812 0.375 0.86719 0 0.49219-0.32813 0.82031-0.32812 0.32812-0.94922 0.38672v9.3984q0.76172 0 1.125 0.33984t0.36328 0.86719-0.375 0.86719q-0.36328 0.32812-1.2305 0.32812h-3.1641q-0.85547 0-1.2305-0.32812-0.36328-0.33984-0.36328-0.87891 0-0.52734 0.36328-0.85547 0.375-0.33984 1.2305-0.33984h0.87891v-7.1602l-2.7539 6.1875h-2.0859zm17.691 3.6328v3.5273h6.1289v-1.3008q0-0.86719 0.32812-1.2305 0.33984-0.375 0.87891-0.375 0.52734 0 0.85547 0.375 0.33984 0.36328 0.33984 1.2305v3.7031h-11.309q-0.86719 0-1.2422-0.32812-0.36328-0.33984-0.36328-0.87891 0-0.52734 0.375-0.85547 0.375-0.33984 1.2305-0.33984h0.375v-9.3984h-0.375q-0.86719 0-1.2422-0.32812-0.36328-0.33984-0.36328-0.87891 0-0.53906 0.36328-0.86719 0.375-0.33984 1.2422-0.33984l10.781 0.01172v3.6562q0 0.85547-0.32813 1.2305-0.32812 0.36328-0.86719 0.36328-0.53906 0-0.8789-0.36328-0.32813-0.36328-0.32813-1.2305v-1.2539h-5.6016v3.4688h2.1094q0-0.9375 0.17579-1.207 0.36328-0.57422 1.0312-0.57422 0.52734 0 0.85546 0.375 0.33985 0.36328 0.33985 1.2305v2.7656q0 0.78516-0.1875 1.0547-0.375 0.55078-1.0078 0.55078-0.66797 0-1.0312-0.57422-0.17579-0.26953-0.17579-1.2188z" aria-label="README"/>
</svg>
