<?xml version="1.0" encoding="UTF-8"?>
<svg width="182" height="55" version="1.1" viewBox="0 0 182 55" xmlns="http://www.w3.org/2000/svg">
 <path d="m0.19271 0.1853h181.61v54.629h-181.61z" color="#000000" fill="#f1f3f4" stroke-linejoin="round" stroke-width="1.0198" style="-inkscape-stroke:none"/>
 <path d="m0.19297 0a0.19251 0.18511 0 0 0-0.19297 0.18555v54.629a0.19251 0.18511 0 0 0 0.19297 0.18555h181.61a0.19251 0.18511 0 0 0 0.19301-0.18555v-54.629a0.19251 0.18511 0 0 0-0.19301-0.18555zm0.19297 0.37109h181.23v54.258h-181.23z" color="#000000" fill-opacity=".55" stroke-linejoin="round" stroke-width="1.0198" style="-inkscape-stroke:none"/>
 <path d="m25.749 30.566a1.2545 1.2545 0 0 0 0-1.7743 3.5246 3.5246 0 0 1 0-4.9847l4.2248-4.2236a3.5247 3.5247 0 1 1 4.9847 4.9847l-1.3059 1.3047a1.2546 1.2546 0 0 0 1.7743 1.7743l1.3059-1.3047a6.0339 6.0339 0 0 0-8.5332-8.5332l-4.2248 4.2236a6.0337 6.0337 0 0 0 0 8.5332c0.48987 0.48987 1.2844 0.48987 1.7743 0zm2.4493-5.9979a1.2545 1.2545 0 0 0 0 1.7743 3.5246 3.5246 0 0 1 0 4.9847l-4.1818 4.1818a3.5246 3.5246 0 1 1-4.9835-4.9847l1.2247-1.2247a1.2546 1.2546 0 0 0-1.7743-1.7743l-1.2235 1.2247a6.0339 6.0339 0 0 0 8.5332 8.5332l4.1818-4.1818a6.0337 6.0337 0 0 0 0-8.5332 1.2545 1.2545 0 0 0-1.7743 0z" clip-rule="evenodd" fill-rule="evenodd" stroke-width="1.1948"/>
 <path d="m61.079 27.687-2.2266 6.8203h-2.6953l-1.4297-11.801q-0.55078-0.070312-0.83203-0.375-0.28125-0.31641-0.28125-0.79688 0-0.5625 0.36328-0.90234 0.375-0.33984 1.2422-0.33984l3.1992 0.01172q0.86719 0 1.2305 0.32812 0.375 0.32812 0.375 0.86719 0 0.53906-0.375 0.87891-0.36328 0.32812-1.2305 0.32812h-1.2539l0.79688 6.7148 1.8867-5.5898h2.4961l1.875 5.5898 0.79688-6.7148h-1.2539q-0.86719 0-1.2422-0.32812-0.36328-0.33984-0.36328-0.87891 0-0.53906 0.36328-0.86719 0.375-0.33984 1.2422-0.33984l3.1875 0.01172q0.86719 0 1.2305 0.32812 0.375 0.32812 0.375 0.86719 0 0.45703-0.29297 0.78516-0.29297 0.32812-0.84375 0.42188l-1.3828 11.801h-2.6484zm13.93 0.89062v3.5273h6.1289v-1.3008q0-0.86719 0.32812-1.2305 0.33984-0.375 0.87891-0.375 0.52734 0 0.85547 0.375 0.33984 0.36328 0.33984 1.2305v3.7031h-11.309q-0.86719 0-1.2422-0.32812-0.36328-0.33984-0.36328-0.87891 0-0.52734 0.375-0.85547 0.375-0.33984 1.2305-0.33984h0.375v-9.3984h-0.375q-0.86719 0-1.2422-0.32812-0.36328-0.33984-0.36328-0.87891 0-0.53906 0.36328-0.86719 0.375-0.33984 1.2422-0.33984l10.781 0.01172v3.6562q0 0.85547-0.32812 1.2305-0.32812 0.36328-0.86719 0.36328-0.53906 0-0.87891-0.36328-0.32812-0.36328-0.32812-1.2305v-1.2539h-5.6016v3.4688h2.1094q0-0.9375 0.17578-1.207 0.36328-0.57422 1.0312-0.57422 0.52734 0 0.85547 0.375 0.33984 0.36328 0.33984 1.2305v2.7656q0 0.78516-0.1875 1.0547-0.375 0.55078-1.0078 0.55078-0.66797 0-1.0312-0.57422-0.17578-0.26953-0.17578-1.2188zm13.965 3.5273v-9.3984h-0.375q-0.86719 0-1.2422-0.32812-0.36328-0.33984-0.36328-0.87891 0-0.53906 0.36328-0.86719 0.375-0.33984 1.2422-0.33984h6.0234q2.1562 0 3.4688 1.207 1.3125 1.1953 1.3125 2.8477 0 0.78516-0.30469 1.4766-0.30469 0.69141-0.92578 1.2773 1.1367 0.67969 1.6992 1.5938 0.57422 0.90234 0.57422 2.0508 0 0.91406-0.41016 1.6992-0.30469 0.59766-0.75 0.94922-0.59766 0.49219-1.4648 0.80859-0.86719 0.30469-2.168 0.30469h-7.0547q-0.86719 0-1.2422-0.32812-0.36328-0.33984-0.36328-0.87891 0-0.52734 0.375-0.85547 0.375-0.33984 1.2305-0.33984zm2.4023-5.9062h2.6367q1.418 0 2.3555-0.71484 0.63281-0.48047 0.63281-1.1953 0-0.63281-0.59766-1.1016-0.59766-0.48047-1.8984-0.48047h-3.1289zm0 5.9062h4.1484q1.4648 0 2.0625-0.43359 0.45703-0.32812 0.45703-0.9375 0-0.72656-0.90234-1.4297-0.90234-0.70312-2.5898-0.70312h-3.1758zm17.516-2.4727v2.4727h2.4258q0.86719 0 1.2305 0.33984 0.375 0.32812 0.375 0.86719 0 0.52734-0.375 0.86719-0.36328 0.32812-1.2305 0.32812h-5.2031q-0.86719 0-1.2422-0.32812-0.36328-0.33984-0.36328-0.87891 0-0.52734 0.375-0.85547 0.375-0.33984 1.2305-0.33984h0.375v-9.3984h-0.375q-0.86719 0-1.2422-0.32812-0.36328-0.33984-0.36328-0.87891 0-0.53906 0.36328-0.86719 0.375-0.33984 1.2422-0.33984l5.5312 0.01172q2.4375 0 3.8555 1.3359 1.4297 1.3242 1.4297 3.2344 0 1.0547-0.48047 1.9922-0.36328 0.70312-1.2188 1.3945-0.84375 0.67969-1.7344 1.0312-0.8789 0.33984-2.332 0.33984zm0-2.4023h2.2266q1.5703 0 2.4844-0.70312 0.92578-0.71484 0.92578-1.7109 0-0.84375-0.75-1.4766-0.73828-0.63281-2.1211-0.63281h-2.7656zm20.727 3.4102h-5.8359l-0.58594 1.4648h0.58594q0.86719 0 1.2305 0.33984 0.375 0.32812 0.375 0.86719 0 0.52734-0.375 0.86719-0.36328 0.32812-1.2305 0.32812h-3.2344q-0.86718 0-1.2305-0.32812-0.375-0.33984-0.375-0.87891 0-0.53906 0.38672-0.87891t1.2774-0.31641l3.7734-9.3984h-1.5703q-0.86719 0-1.2422-0.32812-0.36328-0.33984-0.36328-0.87891 0-0.53906 0.36328-0.86719 0.375-0.33984 1.2422-0.33984l5.1914 0.01172 4.7812 11.801q0.84375 0 1.1133 0.1875 0.53906 0.38672 0.53906 1.0195 0 0.52734-0.36328 0.86719-0.36328 0.32812-1.2305 0.32812h-3.2344q-0.86719 0-1.2422-0.32812-0.36328-0.33984-0.36328-0.87891 0-0.52734 0.36328-0.85547 0.375-0.33984 1.2422-0.33984h0.58593zm-0.9961-2.4023-1.9336-4.7578-1.9453 4.7578zm20.516 1.875v3.2227q-1.6289 0.87891-2.7774 1.1953-1.1367 0.32812-2.4609 0.32812-1.8398 0-3.4102-0.55078-1.2305-0.42188-1.9453-1.0664-0.70313-0.64453-1.3008-1.8984-0.59766-1.2656-0.59766-2.8242v-1.7344q0-2.4023 1.4648-4.2891 1.9688-2.5547 5.3555-2.5547 0.98438 0 1.8633 0.19922 0.89063 0.19922 1.6875 0.59766 0.48047-0.43359 0.9375-0.43359 0.52735 0 0.85547 0.36328 0.32813 0.36328 0.32813 1.2305v1.5586q0 0.86719-0.33985 1.2422-0.32812 0.36328-0.85547 0.36328-0.42187 0-0.72656-0.25781-0.23437-0.17578-0.39844-0.77344-0.15234-0.60938-0.35156-0.82031-0.3164-0.33984-1.125-0.59766-0.79687-0.26953-1.793-0.26953-1.4297 0-2.4844 0.58594-0.75 0.43359-1.3828 1.5117-0.63282 1.0781-0.63282 2.3438v1.7344q0 1.9336 1.1133 2.9414 1.125 0.99609 3.5625 0.99609 1.6524 0 3.0117-0.62109v-1.7227h-2.4492q-0.86718 0-1.2422-0.32812-0.36328-0.33984-0.36328-0.87891 0-0.53906 0.36328-0.86719 0.375-0.33984 1.2422-0.33984l4.2656 0.01172q0.86719 0 1.2305 0.32812 0.375 0.32812 0.375 0.86719 0 0.42188-0.25781 0.73828-0.2461 0.31641-0.76172 0.46875zm7.8828-1.5352v3.5273h6.1289v-1.3008q0-0.86719 0.32812-1.2305 0.33984-0.375 0.87891-0.375 0.52734 0 0.85547 0.375 0.33984 0.36328 0.33984 1.2305v3.7031h-11.309q-0.86719 0-1.2422-0.32812-0.36328-0.33984-0.36328-0.87891 0-0.52734 0.375-0.85547 0.375-0.33984 1.2305-0.33984h0.375v-9.3984h-0.375q-0.86719 0-1.2422-0.32812-0.36328-0.33984-0.36328-0.87891 0-0.53906 0.36328-0.86719 0.375-0.33984 1.2422-0.33984l10.781 0.01172v3.6562q0 0.85547-0.32813 1.2305-0.32812 0.36328-0.86719 0.36328-0.53906 0-0.8789-0.36328-0.32813-0.36328-0.32813-1.2305v-1.2539h-5.6016v3.4688h2.1094q0-0.9375 0.17579-1.207 0.36328-0.57422 1.0312-0.57422 0.52734 0 0.85546 0.375 0.33985 0.36328 0.33985 1.2305v2.7656q0 0.78516-0.1875 1.0547-0.375 0.55078-1.0078 0.55078-0.66797 0-1.0312-0.57422-0.17579-0.26953-0.17579-1.2188z" aria-label="WEBPAGE"/>
</svg>
